<svg width="43" height="42" viewBox="0 0 43 42" fill="none" xmlns="http://www.w3.org/2000/svg">
<path d="M23.8693 0.166748C26.213 0.172998 27.4026 0.185498 28.4297 0.214665L28.8339 0.229248C29.3005 0.245915 29.7609 0.266748 30.3172 0.291748C32.5338 0.395915 34.0464 0.745915 35.3734 1.2605C36.7484 1.78966 37.9068 2.50633 39.0651 3.66258C40.1245 4.70403 40.9442 5.96381 41.4672 7.35425C41.9818 8.68133 42.3318 10.1938 42.4359 12.4126C42.4609 12.9667 42.4818 13.4272 42.4984 13.8959L42.5109 14.3001C42.5422 15.3251 42.5547 16.5147 42.5589 18.8584L42.5609 20.4126V23.1417C42.5661 24.6613 42.5501 26.1809 42.513 27.7001L42.5005 28.1042C42.4839 28.573 42.463 29.0334 42.438 29.5876C42.3339 31.8063 41.9797 33.3167 41.4672 34.6459C40.9457 36.0371 40.1258 37.2972 39.0651 38.3376C38.0234 39.3966 36.7637 40.2162 35.3734 40.7397C34.0464 41.2542 32.5338 41.6042 30.3172 41.7084C29.8228 41.7317 29.3284 41.7525 28.8339 41.7709L28.4297 41.7834C27.4026 41.8126 26.213 41.8272 23.8693 41.8313L22.3151 41.8334H19.588C18.0677 41.8387 16.5474 41.8227 15.0276 41.7855L14.6234 41.773C14.1289 41.7543 13.6344 41.7327 13.1401 41.7084C10.9234 41.6042 9.41093 41.2542 8.08177 40.7397C6.6915 40.2175 5.43222 39.3977 4.39218 38.3376C3.33186 37.2965 2.5114 36.0367 1.98802 34.6459C1.47344 33.3188 1.12344 31.8063 1.01927 29.5876C0.996058 29.0932 0.975224 28.5988 0.956768 28.1042L0.946352 27.7001C0.90796 26.1809 0.890597 24.6614 0.894268 23.1417V18.8584C0.888454 17.3388 0.903733 15.8192 0.940102 14.3001L0.954685 13.8959C0.971352 13.4272 0.992185 12.9667 1.01719 12.4126C1.12135 10.1938 1.47135 8.68341 1.98593 7.35425C2.50909 5.96238 3.33119 4.70221 4.39427 3.66258C5.43404 2.60315 6.69248 1.78339 8.08177 1.2605C9.41093 0.745915 10.9214 0.395915 13.1401 0.291748C13.6943 0.266748 14.1568 0.245915 14.6234 0.229248L15.0276 0.216748C16.5468 0.179733 18.0663 0.163759 19.5859 0.168831L23.8693 0.166748ZM21.7276 10.5834C18.9649 10.5834 16.3154 11.6809 14.3619 13.6344C12.4084 15.5879 11.3109 18.2374 11.3109 21.0001C11.3109 23.7628 12.4084 26.4123 14.3619 28.3658C16.3154 30.3193 18.9649 31.4167 21.7276 31.4167C24.4903 31.4167 27.1398 30.3193 29.0933 28.3658C31.0468 26.4123 32.1443 23.7628 32.1443 21.0001C32.1443 18.2374 31.0468 15.5879 29.0933 13.6344C27.1398 11.6809 24.4903 10.5834 21.7276 10.5834ZM21.7276 14.7501C22.5484 14.7499 23.3611 14.9115 24.1195 15.2254C24.8778 15.5394 25.5669 15.9997 26.1473 16.5799C26.7278 17.1602 27.1883 17.8491 27.5025 18.6073C27.8167 19.3656 27.9785 20.1783 27.9786 20.999C27.9788 21.8198 27.8173 22.6326 27.5033 23.3909C27.1893 24.1492 26.7291 24.8383 26.1488 25.4188C25.5685 25.9992 24.8796 26.4597 24.1214 26.7739C23.3631 27.0881 22.5504 27.2499 21.7297 27.2501C20.0721 27.2501 18.4824 26.5916 17.3103 25.4195C16.1382 24.2474 15.4797 22.6577 15.4797 21.0001C15.4797 19.3425 16.1382 17.7528 17.3103 16.5807C18.4824 15.4086 20.0721 14.7501 21.7297 14.7501M32.6672 7.45841C31.9765 7.45841 31.3141 7.73278 30.8258 8.22116C30.3374 8.70953 30.063 9.37191 30.063 10.0626C30.063 10.7532 30.3374 11.4156 30.8258 11.904C31.3141 12.3924 31.9765 12.6667 32.6672 12.6667C33.3578 12.6667 34.0202 12.3924 34.5086 11.904C34.997 11.4156 35.2714 10.7532 35.2714 10.0626C35.2714 9.37191 34.997 8.70953 34.5086 8.22116C34.0202 7.73278 33.3578 7.45841 32.6672 7.45841Z" fill="black"/>
</svg>
