<svg width="44" height="44" viewBox="0 0 44 44" fill="none" xmlns="http://www.w3.org/2000/svg">
<path d="M21.5909 0.409058C9.66657 0.409058 0 10.0756 0 22C0 33.9243 9.66657 43.5909 21.5909 43.5909C33.5152 43.5909 43.1818 33.9243 43.1818 22C43.1818 10.0756 33.5152 0.409058 21.5909 0.409058ZM16.2383 6.2607C17.0245 6.68402 17.9539 7.0845 19.0274 7.46245C20.1009 7.84043 21.1669 8.02986 22.2253 8.02986C23.0064 8.02835 23.7856 7.8345 24.4484 7.34899C25.0901 6.96438 25.7113 6.6575 26.5347 6.73649C27.3808 6.82894 28.2719 7.12027 29.1653 7.16852C30.2841 7.77329 31.3731 8.52818 32.4315 9.43535C31.9175 9.46558 31.3723 9.5197 30.7977 9.59534C30.2232 9.67095 29.6645 9.78322 29.1202 9.93439C28.5759 10.0856 28.0767 10.2831 27.6231 10.525C27.1695 10.7669 26.8367 11.0686 26.625 11.4315C26.2924 11.9758 26.0584 12.4371 25.9223 12.8151C25.6422 13.5988 25.7084 14.8492 25.0609 15.4237C24.9249 15.5144 24.8112 15.6199 24.7205 15.7409C24.6298 15.8619 24.5919 16.0202 24.607 16.2167C24.6221 16.4132 24.7209 16.6933 24.9023 17.0562C24.9931 17.2679 25.0675 17.5248 25.1279 17.8272C25.7024 17.8254 26.2982 17.739 26.8069 17.3733L29.801 17.6454C30.574 16.7749 31.4746 16.7604 32.2497 17.6454C32.4916 17.8873 32.7487 18.2512 33.0208 18.7351L31.7507 19.5964C31.4483 19.5057 31.0857 19.3244 30.6624 19.0523C30.4512 18.9313 30.2388 18.7947 30.0266 18.6435C28.8199 18.0578 26.457 18.7399 25.1279 18.8253C24.9547 19.172 24.815 19.5113 24.4033 19.5965C24.3318 19.8208 24.4009 20.0614 24.3117 20.2774C23.7371 21.1846 23.541 22.1369 23.7224 23.1348C24.055 24.7073 24.8708 25.4932 26.1711 25.4932H26.6701C27.3051 25.4932 27.7516 25.523 28.0086 25.5835C28.2657 25.6439 28.3942 25.6899 28.3942 25.7202C28.243 26.0831 28.1902 26.3699 28.2356 26.5816C28.3853 27.2607 28.8754 27.7747 28.8248 28.5093C28.7779 29.4437 28.4841 30.2493 28.803 31.1863C29.1666 32.0952 29.6233 33.0822 29.9597 34.0205C30.0957 34.2927 30.3 34.4591 30.5722 34.5196C31.1165 34.6103 31.7969 34.2477 32.6134 33.4313C33.2182 32.766 33.5659 32.0395 33.6566 31.2533C33.7763 30.5574 34.2669 29.9392 34.4277 29.2121V28.6228C34.5786 28.3204 34.7071 28.0255 34.8132 27.7382C34.9646 27.3207 34.9811 26.7886 35.0169 26.3095C35.4923 25.8341 35.9562 25.4097 36.2871 24.8124C36.4988 24.4495 36.5596 24.133 36.4689 23.8608C36.4398 23.8004 36.3641 23.7394 36.242 23.679L35.5611 23.4069C35.5727 23.0267 36.2718 23.0833 36.6042 23.1348L38.2367 22.1367C38.1762 24.193 37.7757 26.1817 37.0349 28.1019C36.2941 30.0221 35.1983 31.7523 33.7468 33.2945C31.8115 35.4113 29.4901 36.9237 26.7836 37.8309C24.0772 38.7381 21.2877 38.9194 18.4149 38.3751C18.9095 37.5013 19.195 36.5168 19.7767 35.6529C19.7767 35.1994 19.8443 34.8138 19.9804 34.4963C20.5577 33.1607 21.4997 32.8131 22.589 31.7755C23.6882 30.6298 23.6779 29.276 23.7224 27.6247C23.7074 26.5795 22.0363 25.9379 21.2724 25.3565C19.5019 24.1633 18.3775 22.4079 15.8528 22.9297C14.9505 23.0217 14.7321 23.1971 14.0604 22.6358L13.7883 22.499L13.8115 22.4088L13.925 22.1818C14.196 21.8984 13.8113 21.5421 13.4478 21.6596C13.3722 21.6747 13.2897 21.6828 13.199 21.6828C13.1161 21.2777 12.8443 20.9008 12.7902 20.4578C13.2135 20.7904 13.5774 21.0407 13.8799 21.207C14.1822 21.3734 14.4392 21.487 14.651 21.5475C14.8627 21.6382 15.0439 21.6679 15.1951 21.6377C15.5278 21.5772 15.7158 21.2444 15.7611 20.6396C15.8065 20.0349 15.7848 19.3395 15.6941 18.5533C15.7849 18.4324 15.8444 18.3106 15.8746 18.1896C16.1942 16.5369 17.0406 16.8993 18.3247 16.4218C18.5364 16.3009 18.581 16.1493 18.46 15.9679C18.46 15.9376 18.4532 15.9228 18.4382 15.9228C18.4231 15.9228 18.4149 15.9065 18.4149 15.8763C19.113 15.5257 19.5241 14.8079 19.9571 14.1536C19.5882 13.569 19.0154 13.0808 18.3698 12.7468C18.0236 12.3197 16.6642 12.5815 16.3737 11.8854C16.1318 11.8551 15.9505 11.8091 15.8295 11.7487C14.6049 10.955 14.0876 9.5672 12.7684 9.00469C12.2391 8.95935 11.717 8.96748 11.2029 9.02793C12.7451 7.78815 14.4239 6.86553 16.2383 6.2607ZM5.2159 19.0523C5.48805 19.5058 5.82084 19.9144 6.21394 20.2773C8.25424 22.1516 10.1721 22.5488 12.7902 23.4971C12.911 23.5878 13.0775 23.7393 13.2892 23.951C13.5745 24.1675 13.8159 24.4268 14.1069 24.6318C14.1069 24.783 14.0839 24.9941 14.0385 25.2662C13.9931 25.5384 13.985 25.9767 14.0152 26.5815C14.1026 28.2644 15.4905 29.5965 15.8746 31.2081C15.5339 33.2966 15.529 35.3493 15.2854 37.4221C13.2291 36.5754 11.4231 35.3659 9.86579 33.7935C8.30847 32.2211 7.10582 30.3921 6.2591 28.3055C5.65434 26.7935 5.26876 25.2581 5.10244 23.7008C4.9359 22.1434 4.97383 20.5945 5.2159 19.0523Z" fill="black"/>
</svg>
